<mxfile host="app.diagrams.net" modified="2024-03-13T02:44:01.552Z" agent="Mozilla/5.0 (Windows NT 10.0; Win64; x64) AppleWebKit/537.36 (KHTML, like Gecko) Chrome/108.0.0.0 Safari/537.36 Edg/108.0.1462.54" etag="intXmR0dgyJQjzmG4l9h" version="24.0.5" type="github">
  <diagram name="第 1 页" id="G1pDeH35pqn5nHQtgi4r">
    <mxGraphModel dx="1434" dy="796" grid="1" gridSize="10" guides="1" tooltips="1" connect="1" arrows="1" fold="1" page="1" pageScale="1" pageWidth="827" pageHeight="1169" math="0" shadow="0">
      <root>
        <mxCell id="0" />
        <mxCell id="1" parent="0" />
        <mxCell id="981GLk__1Zaw3TXjqBva-4" value="" style="edgeStyle=orthogonalEdgeStyle;rounded=0;orthogonalLoop=1;jettySize=auto;html=1;" edge="1" parent="1" source="981GLk__1Zaw3TXjqBva-1" target="981GLk__1Zaw3TXjqBva-3">
          <mxGeometry relative="1" as="geometry" />
        </mxCell>
        <mxCell id="981GLk__1Zaw3TXjqBva-1" value="frequency hoping" style="rounded=0;whiteSpace=wrap;html=1;" vertex="1" parent="1">
          <mxGeometry x="180" y="80" width="120" height="60" as="geometry" />
        </mxCell>
        <mxCell id="981GLk__1Zaw3TXjqBva-6" value="" style="edgeStyle=orthogonalEdgeStyle;rounded=0;orthogonalLoop=1;jettySize=auto;html=1;" edge="1" parent="1" source="981GLk__1Zaw3TXjqBva-3" target="981GLk__1Zaw3TXjqBva-5">
          <mxGeometry relative="1" as="geometry" />
        </mxCell>
        <mxCell id="981GLk__1Zaw3TXjqBva-7" value="yes" style="edgeLabel;html=1;align=center;verticalAlign=middle;resizable=0;points=[];" vertex="1" connectable="0" parent="981GLk__1Zaw3TXjqBva-6">
          <mxGeometry x="-0.16" y="-4" relative="1" as="geometry">
            <mxPoint as="offset" />
          </mxGeometry>
        </mxCell>
        <mxCell id="981GLk__1Zaw3TXjqBva-12" style="edgeStyle=orthogonalEdgeStyle;rounded=0;orthogonalLoop=1;jettySize=auto;html=1;entryX=1;entryY=0.5;entryDx=0;entryDy=0;" edge="1" parent="1" source="981GLk__1Zaw3TXjqBva-3" target="981GLk__1Zaw3TXjqBva-8">
          <mxGeometry relative="1" as="geometry">
            <Array as="points">
              <mxPoint x="350" y="215" />
              <mxPoint x="350" y="430" />
            </Array>
          </mxGeometry>
        </mxCell>
        <mxCell id="981GLk__1Zaw3TXjqBva-13" value="no" style="edgeLabel;html=1;align=center;verticalAlign=middle;resizable=0;points=[];" vertex="1" connectable="0" parent="981GLk__1Zaw3TXjqBva-12">
          <mxGeometry x="-0.4345" y="-2" relative="1" as="geometry">
            <mxPoint y="-12" as="offset" />
          </mxGeometry>
        </mxCell>
        <mxCell id="981GLk__1Zaw3TXjqBva-3" value="frequency change?" style="rhombus;whiteSpace=wrap;html=1;rounded=0;" vertex="1" parent="1">
          <mxGeometry x="155" y="190" width="170" height="50" as="geometry" />
        </mxCell>
        <mxCell id="981GLk__1Zaw3TXjqBva-9" value="" style="edgeStyle=orthogonalEdgeStyle;rounded=0;orthogonalLoop=1;jettySize=auto;html=1;" edge="1" parent="1" source="981GLk__1Zaw3TXjqBva-5" target="981GLk__1Zaw3TXjqBva-8">
          <mxGeometry relative="1" as="geometry" />
        </mxCell>
        <mxCell id="981GLk__1Zaw3TXjqBva-5" value="update baseline index" style="shape=parallelogram;perimeter=parallelogramPerimeter;whiteSpace=wrap;html=1;fixedSize=1;rounded=0;" vertex="1" parent="1">
          <mxGeometry x="182.5" y="290" width="115" height="66.58" as="geometry" />
        </mxCell>
        <mxCell id="981GLk__1Zaw3TXjqBva-8" value="baseline update" style="rounded=0;whiteSpace=wrap;html=1;" vertex="1" parent="1">
          <mxGeometry x="180" y="400" width="120" height="60" as="geometry" />
        </mxCell>
      </root>
    </mxGraphModel>
  </diagram>
</mxfile>
